<mxfile host="65bd71144e">
    <diagram id="JNQnH1b6BUInlAfZXCUV" name="Page-1">
        <mxGraphModel dx="693" dy="566" grid="1" gridSize="10" guides="1" tooltips="1" connect="1" arrows="1" fold="1" page="1" pageScale="1" pageWidth="827" pageHeight="1169" math="0" shadow="0">
            <root>
                <mxCell id="0"/>
                <mxCell id="1" parent="0"/>
                <mxCell id="12" value="" style="rounded=1;whiteSpace=wrap;html=1;fontFamily=&quot;Times New Roman&quot;, SimSun, sans-serif;" parent="1" vertex="1">
                    <mxGeometry x="215" y="80" width="230" height="210" as="geometry"/>
                </mxCell>
                <mxCell id="2" value="Professor" style="shape=umlActor;verticalLabelPosition=bottom;verticalAlign=top;html=1;outlineConnect=0;fontFamily=&quot;Times New Roman&quot;, SimSun, sans-serif;" parent="1" vertex="1">
                    <mxGeometry x="130" y="160" width="30" height="60" as="geometry"/>
                </mxCell>
                <mxCell id="3" value="Student" style="shape=umlActor;verticalLabelPosition=bottom;verticalAlign=top;html=1;outlineConnect=0;fontFamily=&quot;Times New Roman&quot;, SimSun, sans-serif;" parent="1" vertex="1">
                    <mxGeometry x="500" y="160" width="30" height="60" as="geometry"/>
                </mxCell>
                <mxCell id="4" value="Publish project details" style="ellipse;whiteSpace=wrap;html=1;fontFamily=&quot;Times New Roman&quot;, SimSun, sans-serif;" parent="1" vertex="1">
                    <mxGeometry x="260" y="100" width="140" height="50" as="geometry"/>
                </mxCell>
                <mxCell id="5" value="View status" style="ellipse;whiteSpace=wrap;html=1;fontFamily=&quot;Times New Roman&quot;, SimSun, sans-serif;" parent="1" vertex="1">
                    <mxGeometry x="260" y="170" width="140" height="40" as="geometry"/>
                </mxCell>
                <mxCell id="6" value="Choose projects to participant" style="ellipse;whiteSpace=wrap;html=1;fontFamily=&quot;Times New Roman&quot;, SimSun, sans-serif;" parent="1" vertex="1">
                    <mxGeometry x="260" y="230" width="140" height="40" as="geometry"/>
                </mxCell>
                <mxCell id="8" value="" style="endArrow=classic;html=1;fontFamily=&quot;Times New Roman&quot;, SimSun, sans-serif;entryX=0;entryY=0.5;entryDx=0;entryDy=0;" parent="1" source="2" target="4" edge="1">
                    <mxGeometry width="50" height="50" relative="1" as="geometry">
                        <mxPoint x="320" y="240" as="sourcePoint"/>
                        <mxPoint x="370" y="190" as="targetPoint"/>
                    </mxGeometry>
                </mxCell>
                <mxCell id="9" value="" style="endArrow=classic;html=1;fontFamily=&quot;Times New Roman&quot;, SimSun, sans-serif;" parent="1" source="2" target="5" edge="1">
                    <mxGeometry width="50" height="50" relative="1" as="geometry">
                        <mxPoint x="300" y="400" as="sourcePoint"/>
                        <mxPoint x="350" y="350" as="targetPoint"/>
                    </mxGeometry>
                </mxCell>
                <mxCell id="10" value="" style="endArrow=classic;html=1;fontFamily=&quot;Times New Roman&quot;, SimSun, sans-serif;entryX=1;entryY=0.5;entryDx=0;entryDy=0;" parent="1" source="3" target="6" edge="1">
                    <mxGeometry width="50" height="50" relative="1" as="geometry">
                        <mxPoint x="400" y="330" as="sourcePoint"/>
                        <mxPoint x="450" y="280" as="targetPoint"/>
                    </mxGeometry>
                </mxCell>
                <mxCell id="11" value="" style="endArrow=classic;html=1;fontFamily=&quot;Times New Roman&quot;, SimSun, sans-serif;entryX=1;entryY=0.5;entryDx=0;entryDy=0;" parent="1" source="3" target="5" edge="1">
                    <mxGeometry width="50" height="50" relative="1" as="geometry">
                        <mxPoint x="460" y="350" as="sourcePoint"/>
                        <mxPoint x="510" y="300" as="targetPoint"/>
                    </mxGeometry>
                </mxCell>
            </root>
        </mxGraphModel>
    </diagram>
</mxfile>